<?xml version="1.0" encoding="UTF-8"?> <svg xmlns="http://www.w3.org/2000/svg" width="272.242" height="72.989" viewBox="0 0 272.242 72.989"><defs><clipPath id="q28ndw8vta"><path data-name="Rectangle 26" style="fill:none" d="M0 0h272.242v72.989H0z"></path></clipPath></defs><g data-name="Group 13"><path data-name="Rectangle 25" transform="translate(0 7.516)" style="fill:#001d4a" d="M0 0h65.1v65.104H0z"></path><g data-name="Group 12"><g data-name="Group 11" style="clip-path:url(#q28ndw8vta)"><path data-name="Path 97" d="M58.874 0h-4.239a2.393 2.393 0 0 0-2.392 2.392v2.464a.564.564 0 0 0 .565.565h4.235a2.394 2.394 0 0 0 2.392-2.4V.565A.564.564 0 0 0 58.874 0" transform="translate(144.576 .001)" style="fill:#001d4a"></path><path data-name="Path 98" d="M32.978 0h-4.239a2.391 2.391 0 0 0-2.392 2.392v2.464a.567.567 0 0 0 .565.565h4.235a2.4 2.4 0 0 0 2.4-2.4V.565A.567.567 0 0 0 32.978 0" transform="translate(72.912 .001)" style="fill:#001d4a"></path><path data-name="Path 99" d="M38.024 13.636c-2.377-.5-5.824-.953-5.824-3.327 0-.919.607-2.294 3.715-2.294a3.857 3.857 0 0 1 3.379 1.428 2.42 2.42 0 0 0 2.449.987l5.139-.995a.583.583 0 0 0 .445-.738C46.206 4.945 42.1 1.908 35.809 1.908c-5.369 0-11.434 2.377-11.434 8.7 0 4.2 2.615 6.265 5.817 7.565a47.123 47.123 0 0 0 6.367 1.62c2.317.52 4.091 1.047 4.091 2.829 0 1.33-1.319 2.539-4.317 2.539-1.827 0-3.654-.46-4.634-1.771a2.382 2.382 0 0 0-2.366-.874l-5.06.98a.576.576 0 0 0-.448.7c1.266 5.534 7.539 7.075 12.274 7.075 5.576 0 12.462-2.34 12.462-9.023 0-6.273-5.12-7.463-10.537-8.608" transform="translate(65.888 5.281)" style="fill:#001d4a"></path><path data-name="Path 100" d="M50.665 24.689V19.2h10.7a.581.581 0 0 0 .573-.58v-4.66a.576.576 0 0 0-.573-.576h-10.7V7.943h13.412a.572.572 0 0 0 .573-.573v-4.8a.576.576 0 0 0-.573-.576h-18.4a2.44 2.44 0 0 0-2.437 2.441v25.63a.572.572 0 0 0 .573.573h20.592a.572.572 0 0 0 .573-.573v-4.8a.572.572 0 0 0-.573-.573z" transform="translate(119.661 5.519)" style="fill:#001d4a"></path><path data-name="Path 101" d="M46.361 1.995h-4.416a2.439 2.439 0 0 0-2.437 2.437v25.634a.572.572 0 0 0 .573.573h6.28a.576.576 0 0 0 .576-.573V2.568a.578.578 0 0 0-.576-.573" transform="translate(109.333 5.522)" style="fill:#001d4a"></path><path data-name="Path 102" d="M47.937 2.57v15.319a7.773 7.773 0 0 0-.456-.855L38.289 2.658a1.441 1.441 0 0 0-1.209-.663h-3.237a2.442 2.442 0 0 0-2.437 2.441v25.632a.572.572 0 0 0 .573.573h6.28a.572.572 0 0 0 .573-.573V15.251a5.683 5.683 0 0 0 .407.765c.23.354 9.14 13.973 9.14 13.973a1.436 1.436 0 0 0 1.2.652h5.214a.572.572 0 0 0 .569-.573V2.57a.577.577 0 0 0-.569-.576h-6.28a.579.579 0 0 0-.576.576" transform="translate(86.912 5.519)" style="fill:#001d4a"></path><path data-name="Path 103" d="M82.169 29.914 71.134 14.792l9.731-12.1a.431.431 0 0 0-.335-.7h-7.173a1.431 1.431 0 0 0-1.134.554l-7.117 9.166V2.567a.575.575 0 0 0-.573-.573h-4.418a2.436 2.436 0 0 0-2.434 2.437v25.634a.576.576 0 0 0 .573.576h6.28a.576.576 0 0 0 .573-.576v-8.243l1.375-1.548 6.77 9.716a1.446 1.446 0 0 0 1.175.61h7.4a.431.431 0 0 0 .347-.686" transform="translate(159.625 5.519)" style="fill:#001d4a"></path><path data-name="Path 104" d="m93.778 30.056-10.1-27.69a.572.572 0 0 0-.539-.377h-6.386a2.873 2.873 0 0 0-2.694 1.884l-9.554 26.183a.43.43 0 0 0 .407.576h6.819a.566.566 0 0 0 .542-.392l1.673-4.988h10.39l1.673 4.988a.57.57 0 0 0 .543.392h6.819a.432.432 0 0 0 .407-.576M75.894 19.432s2.95-8.808 3.085-9.215a6.492 6.492 0 0 0 .162-.772 5 5 0 0 0 .158.761c.094.29 3.089 9.226 3.089 9.226z" transform="translate(178.438 5.505)" style="fill:#001d4a"></path><path data-name="Path 105" d="m60.005 24.478 13.1-16.494a1.42 1.42 0 0 0 .316-.893V2.57a.579.579 0 0 0-.576-.576H52.994a2.439 2.439 0 0 0-2.437 2.437v3.154a.574.574 0 0 0 .576.576h12.888l-13.574 16.4a1.439 1.439 0 0 0-.332.915v4.6a.576.576 0 0 0 .576.573h22.651a.576.576 0 0 0 .576-.573V25.05a.576.576 0 0 0-.576-.573z" transform="translate(138.69 5.519)" style="fill:#001d4a"></path><path data-name="Path 106" d="M40.261 26.881a.6.6 0 0 1 .678-.678h1.586a.763.763 0 0 1 .494.177.616.616 0 0 1 .219.5v6.891a.791.791 0 0 1-.079.347.641.641 0 0 1-.264.267l-.121.094a11.4 11.4 0 0 1-3.191 1.609 12.114 12.114 0 0 1-3.76.561 11.681 11.681 0 0 1-3.138-.414 11.285 11.285 0 0 1-2.8-1.187 11.723 11.723 0 0 1-2.373-1.842 11.556 11.556 0 0 1-1.835-2.373 11.713 11.713 0 0 1-1.6-5.941 11.489 11.489 0 0 1 .418-3.112 11.793 11.793 0 0 1 1.187-2.807 11.922 11.922 0 0 1 1.842-2.389 11.626 11.626 0 0 1 2.373-1.85 11.809 11.809 0 0 1 2.8-1.194 11.864 11.864 0 0 1 6.789.154 12.247 12.247 0 0 1 3.285 1.658 1.238 1.238 0 0 1 .279.283.6.6 0 0 1 .105.332.571.571 0 0 1-.124.373l-.815 1.36a.7.7 0 0 1-.539.369.663.663 0 0 1-.237-.053 1.624 1.624 0 0 1-.3-.181 9.735 9.735 0 0 0-2.411-1.239 8.421 8.421 0 0 0-2.78-.452 8.526 8.526 0 0 0-3.538.723 9 9 0 0 0-4.694 4.747 8.348 8.348 0 0 0-.678 3.312 8.475 8.475 0 0 0 .693 3.428 8.743 8.743 0 0 0 4.649 4.634 8.428 8.428 0 0 0 3.364.678 7.21 7.21 0 0 0 2.242-.362q1.119-.362 2.275-.855z" transform="translate(66.627 36.306)" style="fill:#001d4a"></path><path data-name="Path 107" d="M30.233 13.938c0-.494.226-.738.678-.738h8.895a7.1 7.1 0 0 1 2.863.576 7.428 7.428 0 0 1 2.313 1.575 7.322 7.322 0 0 1 1.548 2.324 7.445 7.445 0 0 1 .264 4.92 7.473 7.473 0 0 1-.84 1.838 7.025 7.025 0 0 1-1.3 1.518 7.179 7.179 0 0 1-1.68 1.119l4.069 8.337v.2c0 .32-.188.478-.569.478h-1.861a.809.809 0 0 1-.738-.569l-3.7-7.768a2.029 2.029 0 0 1-.271.015c-.1 0-.237 0-.414.008s-.418.008-.72.008h-5.546v7.629c0 .452-.237.678-.708.678h-1.6a.6.6 0 0 1-.678-.678zm13.9 6.551a4.146 4.146 0 0 0-.332-1.635 4.435 4.435 0 0 0-2.277-2.354 4.107 4.107 0 0 0-1.718-.362h-6.582v8.7h6.642a4.059 4.059 0 0 0 1.7-.358 4.243 4.243 0 0 0 1.356-.953 4.468 4.468 0 0 0 .893-1.386 4.309 4.309 0 0 0 .324-1.65" transform="translate(83.666 36.53)" style="fill:#001d4a"></path><path data-name="Path 108" d="M47.1 13.119a11.665 11.665 0 0 1 5.926 1.6 12.384 12.384 0 0 1 2.381 1.842 11.377 11.377 0 0 1 1.842 2.392 12.114 12.114 0 0 1 1.187 2.826 11.694 11.694 0 0 1-1.179 9.068 11.723 11.723 0 0 1-1.842 2.373 11.891 11.891 0 0 1-11.483 3.014 11.285 11.285 0 0 1-2.8-1.187 11.723 11.723 0 0 1-2.373-1.842 11.555 11.555 0 0 1-1.835-2.373 11.66 11.66 0 0 1-1.594-5.941 11.648 11.648 0 0 1 1.6-5.934 12.029 12.029 0 0 1 1.84-2.387 11.535 11.535 0 0 1 2.381-1.842 12.138 12.138 0 0 1 2.81-1.187 11.515 11.515 0 0 1 3.138-.422m-8.815 11.728a8.528 8.528 0 0 0 .316 2.336 8.975 8.975 0 0 0 .885 2.095 8.74 8.74 0 0 0 1.371 1.782 8.639 8.639 0 0 0 1.782 1.371 8.975 8.975 0 0 0 2.095.885 8.751 8.751 0 0 0 4.664 0 8.909 8.909 0 0 0 2.095-.885 8.775 8.775 0 0 0 1.771-1.371 8.609 8.609 0 0 0 1.371-1.782 8.985 8.985 0 0 0 .889-2.095 8.674 8.674 0 0 0 .313-2.336 8.455 8.455 0 0 0-.693-3.413 8.839 8.839 0 0 0-1.88-2.78 8.956 8.956 0 0 0-2.78-1.884 8.761 8.761 0 0 0-5.749-.377 8.828 8.828 0 0 0-2.095.889 8.51 8.51 0 0 0-1.782 1.371 8.671 8.671 0 0 0-1.371 1.771 8.842 8.842 0 0 0-.885 2.095 8.554 8.554 0 0 0-.316 2.328" transform="translate(97.763 36.306)" style="fill:#001d4a"></path><path data-name="Path 109" d="M45.568 26.624a8.517 8.517 0 0 0 .422 2.728 6.281 6.281 0 0 0 1.251 2.2 5.845 5.845 0 0 0 2.012 1.466 6.551 6.551 0 0 0 2.713.531A6.947 6.947 0 0 0 54.814 33a5.487 5.487 0 0 0 2.012-1.469 6.154 6.154 0 0 0 1.187-2.2 9.046 9.046 0 0 0 .392-2.713V13.879a.64.64 0 0 1 .211-.478.72.72 0 0 1 .516-.2h1.481a.88.88 0 0 1 .539.185.585.585 0 0 1 .245.494v13.159a9.551 9.551 0 0 1-.742 3.816 8.854 8.854 0 0 1-2.023 2.972 9.307 9.307 0 0 1-3.006 1.936 9.737 9.737 0 0 1-3.658.693 9.043 9.043 0 0 1-3.654-.742 9.507 9.507 0 0 1-5.026-5.022 9.168 9.168 0 0 1-.738-3.654V13.879a.733.733 0 0 1 .177-.456.574.574 0 0 1 .471-.222h1.646a.789.789 0 0 1 .482.2.6.6 0 0 1 .245.478z" transform="translate(117.743 36.533)" style="fill:#001d4a"></path><path data-name="Path 110" d="M48.708 13.938c0-.494.237-.738.708-.738h7.659a7.078 7.078 0 0 1 6.585 4.4 7.14 7.14 0 0 1 .535 2.75 6.959 6.959 0 0 1-.531 2.7 7.132 7.132 0 0 1-3.715 3.816 6.749 6.749 0 0 1-2.8.576h-5.47v7.968a.6.6 0 0 1-.678.678h-1.62a.6.6 0 0 1-.678-.678zm12.515 6.382a3.949 3.949 0 0 0-.324-1.571 4.274 4.274 0 0 0-.885-1.334 4.355 4.355 0 0 0-1.319-.923 3.807 3.807 0 0 0-1.62-.35h-5.391V24.5h5.391a3.852 3.852 0 0 0 1.59-.339 4.293 4.293 0 0 0 1.326-.919 4.453 4.453 0 0 0 .9-1.334 3.938 3.938 0 0 0 .332-1.586" transform="translate(134.793 36.53)" style="fill:#001d4a"></path></g></g></g></svg> 